PathFileType	4	(X/Y/Z)	C:/Users/beibeiliu/ov580/test_trc/User2\sequence.24_training_dense_right.trc
DataRate	CameraRate	NumFrames	NumMarkers	Units	OrigDataRate	OrigDataStartFrame	OrigNumFrames
120	120	20	19	mm	120	170	451
Frame#	Time	ThumbCMC			ThumbMCP			ThumbIP			ThumbTip			IndexMCP			IndexPIP			IndexTip			MiddleMCP			MiddlePIP			MiddleTip			RingMCP			RingPIP			RingTip			PinkyMCP			PinkyPIP			PinkyTip			BackHand1			BackHand2			BackHand3	
		X0	Y0	Z0	X1	Y1	Z1	X2	Y2	Z2	X3	Y3	Z3	X4	Y4	Z4	X5	Y5	Z5	X6	Y6	Z6	X7	Y7	Z7	X8	Y8	Z8	X9	Y9	Z9	X10	Y10	Z10	X11	Y11	Z11	X12	Y12	Z12	X13	Y13	Z13	X14	Y14	Z14	X15	Y15	Z15	X16	Y16	Z16	X17	Y17	Z17	X18	Y18	Z18	
169	1.40833	49.5151	-48.0868	98.8862	28.6576	-77.9853	81.0047	29.0676	-102.198	55.4559	42.6515	-118.262	31.7871	33.8722	-43.8229	12.6054	20.9657	-48.9278	-6.38039	9.55465	-55.3442	-29.967	48.9416	-46	3.83476	32.4461	-53.6813	-24.2879	21.5095	-59.4009	-51.1237	70.5139	-78.5717	5.17012	59.0612	-110.74	10.6876	62.5539	-111.68	47.576	91.3219	-96.4939	18.8187	79.1257	-118.046	35.4443	74.4367	-106.597	69.8023	101.169	-38.8869	44.0335	112.66	-28.196	78.5465	76.386	-23.6372	73.556	
170	1.41667	49.1873	-49.3984	96.7659	26.731	-79.0664	83.6766	25.6811	-104.362	53.6145	41.3306	-115.634	37.556	31.7396	-42.9351	19.0957	19.3644	-49.339	-3.12091	5.09983	-56.764	-32.1828	48.1418	-48.1022	3.59278	28.1143	-54.9531	-22.5861	17.3158	-61.0191	-50.166	65.1347	-78.2272	7.2712	56.171	-107.85	9.01661	61.2489	-114.698	47.781	87.8188	-94.0601	20.2129	73.172	-118.172	39.818	75.7947	-108.266	72.2797	98.5101	-41.7389	45.3785	112.128	-28.5686	76.3348	76.9341	-24.3299	74.7134	
171	1.425	45.9524	-49.7483	99.456	28.8269	-76.9995	85.7844	27.0644	-102.002	56.2817	38.4505	-115.642	37.5498	28.0247	-43.5183	19.5732	15.6612	-50.328	-3.34777	2.1761	-57.7945	-27.7071	42.8662	-49.7078	3.29296	28.5453	-57.6385	-21.9844	14.5907	-61.5307	-47.8374	66.4534	-80.4937	8.08039	51.5649	-110.893	14.3161	59.7017	-116.78	50.9733	84.2997	-96.8624	19.6938	72.1256	-119.62	37.2101	71.9381	-108.621	72.6856	95.972	-41.5315	48.2026	112.044	-31.6724	74.2443	72.6268	-22.4797	76.2475	
172	1.43333	48.251	-50.7611	99.3983	27.6552	-78.2819	86.4194	21.3288	-105.021	58.094	36.1088	-116.755	36.5072	25.4987	-44.5787	23.2615	9.39523	-52.1426	-0.864288	-1.73119	-58.7631	-26.7119	38.8374	-50.3878	7.23308	21.2072	-58.3868	-18.2903	12.1109	-65.0421	-43.9796	60.6919	-83.6931	8.68837	51.7521	-112.324	12.6736	53.3893	-117.486	50.3799	87.6899	-97.1944	21.5432	71.2291	-122.961	41.231	69.6176	-107.852	71.4585	94.7278	-43.7488	46.6846	110.051	-32.5681	74.3608	75.6272	-24.9433	74.3564	
173	1.44167	49.9284	-50.8826	101.51	28.4429	-78.6265	88.5135	19.5528	-105.372	61.2525	32.3349	-120.558	38.3247	21.8076	-47.5098	22.1534	10.9401	-55.0211	1.06513	0.517213	-62.7803	-24.4855	39.7182	-53.8033	6.71968	21.0745	-60.8867	-15.3147	7.43716	-68.4626	-42.669	59.9193	-84.7576	10.9808	47.1839	-113.7	16.9304	53.7347	-119.253	54.0859	84.9945	-99.3514	23.3283	67.3834	-122.169	40.7786	66.1802	-111.54	73.7993	94.1146	-45.8279	49.7071	112.167	-32.2727	74.9424	70.0762	-25.1931	75.7039	
174	1.45	48.4696	-50.6264	104.294	26.7333	-80.5404	87.9319	20.4183	-105.94	67.3438	28.981	-124.418	42.9831	21.4079	-49.6064	22.9037	7.78018	-57.5301	3.00105	-2.96785	-65.4267	-23.9548	40.2045	-56.1362	8.77237	22.6073	-64.9128	-12.4606	3.80469	-69.5568	-38.4855	58.6064	-86.7452	11.8729	46.1804	-119.044	21.4689	54.1808	-122.039	56.1113	80.3875	-101.929	25.3749	66.3325	-124.401	44.5795	65.6943	-110.639	76.0665	93.2482	-45.539	47.4062	113.485	-35.7201	74.5169	72.5625	-27.3236	76.2867	
175	1.45833	47.4389	-52.3866	103.278	25.955	-82.9095	89.8009	18.4343	-110.043	66.9692	31.1666	-124.909	49.175	23.3148	-52.5503	24.5323	8.4569	-60.2055	2.47345	-6.29037	-68.0838	-22.2601	37.1757	-58.5203	10.8006	17.864	-67.8359	-15.6302	8.54599	-76.051	-38.5737	56.7604	-91.7958	12.4342	44.1817	-119.864	22.4594	50.0626	-122.4	54.6791	77.7243	-108.253	26.9254	62.6043	-125.825	49.1028	64.6765	-117.381	79.3227	96.295	-49.2561	48.3683	110.211	-37.8917	76.7902	72.6397	-28.3061	72.8918	
176	1.46667	47.7384	-53.8903	103.198	26.1852	-84.7489	90.7611	18.8817	-114.42	67.5954	34.139	-128.081	49.3885	24.374	-56.4447	21.3292	7.27779	-62.7348	1.7808	-4.22045	-70.9534	-19.8415	37.5838	-63.4121	6.88617	19.9969	-72.7089	-15.3508	8.50228	-81.9594	-40.44	53.6232	-94.1154	13.4002	43.3587	-120.169	20.784	51.2745	-124.13	59.5429	78.1234	-109.138	29.0014	66.862	-131.335	50.2365	65.4162	-120.714	80.1644	92.3045	-54.4671	46.0029	110.96	-38.6717	75.8132	71.1241	-32.4677	73.7281	
177	1.475	46.2668	-55.1178	104.881	25.277	-89.0288	94.0813	24.5741	-116.704	68.708	32.3775	-136.968	51.3857	21.4173	-58.8103	22.2047	10.5848	-70.5416	-1.72969	-1.01957	-78.5894	-21.6131	41.9044	-67.6105	9.6297	19.7922	-78.6522	-15.0203	7.60124	-89.1291	-42.0146	61.0052	-99.7561	14.5005	47.6997	-127.574	23.641	51.279	-126.573	61.1351	82.7503	-113.262	32.5562	64.5892	-131.85	51.6549	62.0485	-117.304	82.7366	94.5487	-54.1409	50.3257	112.544	-40.6399	75.4075	71.3985	-31.6	74.1463	
178	1.48333	48.4386	-55.8389	103.59	26.4674	-92.1266	92.6403	21.5359	-123.072	74.282	35.5554	-140.277	55.0513	24.3077	-63.4479	24.8549	12.261	-75.1063	1.4275	-0.717557	-86.46	-21.8424	41.3623	-73.1738	10.6451	23.9952	-85.0445	-11.6377	8.48881	-99.3321	-40.1449	57.7966	-105.265	17.3458	51.0761	-132.921	28.5543	54.7317	-128.817	64.526	81.1753	-114.154	35.6188	65.2918	-134.356	56.9353	63.8966	-122.817	86.6699	93.1947	-59.2239	49.8672	111.854	-43.3627	72.8464	72.8571	-37.2845	71.4767	
179	1.49167	45.5276	-57.6635	102.47	29.2487	-92.2282	96.8354	26.5648	-122.141	81.171	39.3591	-140.746	61.9823	24.902	-70.4011	20.9449	8.28143	-81.044	3.93485	2.93443	-95.284	-16.1952	41.5875	-76.8933	12.3818	27.3289	-92.9068	-9.61452	12.1638	-106.998	-33.5372	62.3072	-110.213	20.7911	48.8419	-134.996	37.3144	56.4014	-125.624	72.3599	78.8608	-119.828	40.0312	66.688	-135.452	62.1071	65.9946	-120.178	92.6616	95.2273	-61.1317	50.5077	112.222	-44.0151	75.4183	71.2285	-36.4128	72.1286	
180	1.5	47.2009	-58.0831	104.833	28.2778	-92.9976	102.466	26.7703	-125.257	82.0127	36.5792	-146.852	65.1352	25.867	-72.6147	27.8305	10.641	-87.7799	4.58076	-2.38612	-100.286	-14.458	38.5842	-82.6226	13.6346	22.1526	-97.844	-6.09448	9.9547	-113.506	-30.3851	57.6471	-110.505	27.071	51.0652	-139.211	46.0969	56.7342	-127.282	76.7682	81.8493	-118.587	42.7769	67.8291	-137.537	68.4093	68.8783	-120.391	96.1673	93.3219	-63.4262	47.6121	111.336	-41.4776	75.9135	70.2751	-36.3667	72.7626	
181	1.50833	44.7627	-59.3046	105.091	27.3545	-94.4784	100.918	24.9717	-125.225	86.0855	36.9984	-145.102	67.66	21.718	-74.1299	29.0801	7.86453	-90.3995	6.93796	-2.20938	-104.724	-10.8469	40.246	-84.1236	16.1162	22.3398	-100.983	-5.03069	5.05872	-115.253	-27.332	61.5857	-114.628	29.12	52.3309	-140.526	49.6504	54.3589	-124.438	81.2224	80.8986	-124.098	46.0309	66.9459	-136.608	72.86	65.6552	-122.099	97.8614	89.5288	-60.6733	53.0508	106.214	-42.448	74.9298	69.3866	-39.4132	74.6365	
182	1.51667	41.7119	-57.5932	107.125	27.0513	-92.2815	103.319	22.2965	-127.785	81.1759	35.8721	-145.932	64.4526	18.421	-74.7831	26.6289	8.10664	-89.7194	7.35131	-1.22551	-105.364	-10.1753	37.3673	-83.1105	18.1352	23.6593	-100.796	-3.26646	2.64723	-114.737	-27.0871	56.8922	-112.398	31.3485	49.6161	-140.769	51.9318	58.42	-123.925	83.6289	77.7083	-124.527	46.2402	64.5358	-135.89	73.643	63.2929	-121.579	98.5627	87.432	-62.2097	49.517	108.273	-44.0241	76.6215	65.9402	-36.4094	73.4133	
183	1.525	43.8798	-57.4166	106.439	25.5258	-92.9618	100.547	20.3312	-124.783	82.4866	33.3559	-144.467	63.4307	21.8926	-72.2807	30.0305	4.44716	-86.3048	10.2583	-6.49015	-99.6858	-9.11144	37.9564	-82.8719	16.4449	20.0251	-98.7964	-5.97614	4.73781	-114.508	-28.2312	54.7408	-116.076	29.9729	47.425	-138.345	53.1963	54.373	-122.205	82.941	80.4831	-121.288	46.2613	65.9376	-136.936	73.1977	62.6187	-116.71	100.157	87.6426	-60.7313	50.7448	106.561	-42.3869	77.8166	63.4523	-36.8336	74.0885	
184	1.53333	39.5588	-56.608	105.848	24.8133	-90.5201	97.458	20.4499	-122.568	79.01	33.3538	-138.932	62.1996	16.309	-69.9985	29.1461	3.23223	-84.0211	7.69198	-5.39182	-96.9644	-11.0143	34.8162	-79.9081	14.7172	21.3496	-95.0312	-4.33486	2.34973	-108.997	-30.0104	54.3359	-109.889	30.5426	44.0352	-134.773	49.6898	54.8768	-121.302	82.1036	76.4081	-116.391	45.1655	66.9094	-136.968	71.9938	66.0366	-120.004	98.8993	85.3434	-58.7773	53.4342	100.972	-40.1724	76.8637	63.73	-36.3294	76.1951	
185	1.54167	42.2276	-55.014	108.247	21.7264	-89.0488	101.35	21.8453	-117.935	78.8944	31.9204	-137.212	59.7552	15.9976	-67.995	27.8392	3.91886	-78.6878	10.1031	-6.94584	-94.9894	-15.1468	29.9699	-75.2005	14.7838	17.5817	-91.9772	-7.36836	3.10057	-103.838	-27.7027	52.6232	-110.189	27.8084	47.0881	-133.381	42.7458	50.4002	-121.614	79.3772	75.6575	-112.805	43.042	63.5027	-133.1	70.0564	65.6809	-118.78	95.9449	83.8042	-57.052	51.5828	104.457	-39.1563	80.8334	63.5628	-32.7743	78.7071	
186	1.55	42.3894	-54.2312	109.776	21.8635	-88.5678	98.6603	21.7088	-116.636	73.6333	30.1557	-134.83	55.8082	16.4286	-63.2019	31.2084	1.70111	-76.4722	8.70755	-7.44546	-90.0166	-13.9669	32.2102	-70.2987	16.9056	17.2365	-83.816	-4.40931	0.945034	-98.4967	-31.7374	54.7779	-105.438	24.0411	47.6102	-130.073	39.4429	50.6318	-122.548	75.2347	78.123	-114.709	39.6661	63.0851	-129.142	65.1101	62.8171	-116.655	92.4857	84.8216	-52.7459	53.9423	104.272	-36.2712	78.5497	60.7473	-32.2272	75.1986	
187	1.55833	43.6181	-53.7473	110.705	25.3738	-86.8529	95.8355	20.872	-115.725	74.814	28.9063	-133.752	53.8709	20.8439	-60.7866	30.1653	1.62392	-71.9435	6.48167	-4.03033	-84.1661	-14.8625	34.3064	-67.7053	16.1671	14.704	-81.7309	-8.28195	2.95409	-94.9048	-33.2481	54.2993	-100.18	21.9811	46.1447	-125.427	34.4783	52.7181	-121.968	73.2623	79.0087	-112.076	37.2272	68.0612	-130.234	63.7857	66.7427	-115.022	92.9163	89.3118	-49.4291	52.8555	102.509	-34.3936	77.9335	61.6246	-31.3637	77.2181	
188	1.56667	45.4408	-53.768	109.237	23.7913	-87.3717	96.5898	24.1036	-113.691	67.9727	31.4549	-131.377	49.6493	20.1852	-57.982	27.5376	7.97582	-70.7437	4.36832	0.693036	-80.7379	-17.3326	35.1123	-63.9225	12.5115	25.7337	-77.7924	-9.73192	8.1169	-90.8783	-37.4483	57.5483	-93.9242	20.3701	51.8363	-123.965	28.9637	56.8126	-124.227	67.3217	80.5424	-103.152	34.6531	68.0889	-126.624	57.2402	66.791	-113.649	88.1382	91.1666	-47.1005	55.5839	102.158	-31.4176	78.5752	68.2248	-28.2884	79.2737	
